<?xml version="1.0" standalone="no"?>
<!DOCTYPE svg PUBLIC "-//W3C//DTD SVG 20010904//EN"
 "http://www.w3.org/TR/2001/REC-SVG-20010904/DTD/svg10.dtd">
<svg version="1.0" xmlns="http://www.w3.org/2000/svg"
 width="110.000000pt" height="110.000000pt" viewBox="0 0 110.000000 110.000000"
 preserveAspectRatio="xMidYMid meet">

<g transform="translate(0.000000,110.000000) scale(0.100000,-0.100000)"
fill="#000000" stroke="none">
<path d="M10 550 l0 -540 540 0 540 0 -1 543 c-1 298 -4 530 -6 515 -5 -35
-23 -37 -23 -3 0 22 -4 25 -32 24 -24 -1 -27 -3 -10 -6 27 -5 28 -14 2 -33
-14 -10 -20 -26 -20 -52 0 -21 5 -38 10 -38 6 0 10 5 10 10 0 6 7 10 16 10 19
0 49 -28 40 -38 -4 -3 -12 0 -17 8 -8 11 -12 12 -16 3 -2 -7 -13 -13 -24 -13
-23 0 -24 -6 -3 -27 13 -13 17 -14 24 -3 7 11 11 10 24 -3 19 -19 21 -63 4
-70 -10 -4 -9 -8 2 -16 13 -10 13 -12 0 -22 -11 -8 -12 -12 -2 -16 6 -2 12
-13 12 -23 0 -10 -6 -21 -12 -24 -10 -5 -10 -7 0 -12 14 -7 17 -104 2 -104 -5
0 -10 -13 -10 -30 0 -16 5 -30 10 -30 6 0 10 -13 10 -30 0 -23 -4 -30 -20 -30
-22 0 -27 16 -8 23 7 2 9 8 5 13 -4 5 -13 2 -18 -6 -8 -11 -12 -12 -16 -2 -2
6 -11 12 -20 12 -18 0 -48 29 -39 38 4 3 11 0 16 -8 5 -8 13 -11 17 -6 4 5 2
11 -4 13 -7 3 -13 13 -13 24 0 10 -4 19 -10 19 -5 0 -10 -4 -10 -10 0 -5 -13
-10 -30 -10 -36 0 -37 -6 -9 -31 20 -17 20 -19 4 -35 -14 -15 -18 -15 -26 -3
-7 11 -11 11 -17 2 -4 -7 -8 32 -8 87 0 55 3 94 7 88 5 -8 12 -7 23 5 22 21
20 27 -7 27 -14 0 -26 9 -32 23 -8 18 -20 23 -70 28 -33 3 -54 6 -47 7 6 1 12
7 12 12 0 18 -31 10 -55 -15 -14 -13 -25 -31 -25 -40 0 -13 -3 -12 -18 3 -17
16 -17 18 0 33 21 19 24 45 6 51 -9 3 -8 10 5 22 10 10 21 15 25 12 3 -4 0
-11 -8 -16 -8 -5 -11 -13 -6 -17 5 -4 11 -2 13 5 7 19 34 14 56 -10 13 -16 21
-19 24 -10 3 6 17 12 33 12 16 0 30 -6 33 -12 2 -8 8 -9 13 -4 5 5 4 11 -3 13
-7 3 -13 13 -13 23 0 10 6 20 13 23 6 2 8 8 4 13 -4 5 -12 2 -17 -6 -5 -8 -12
-11 -16 -8 -9 10 21 38 40 38 9 0 16 8 16 20 0 27 -28 26 -53 -2 -13 -16 -21
-19 -24 -10 -8 21 -43 14 -43 -8 0 -13 -7 -20 -19 -20 -11 0 -22 -6 -24 -12
-4 -10 -8 -9 -17 2 -9 11 -13 12 -17 3 -2 -7 -9 -13 -14 -13 -14 0 -11 38 4
43 6 2 9 8 5 12 -5 5 -18 -3 -29 -16 -15 -16 -23 -20 -26 -11 -7 19 -23 14
-23 -8 0 -24 -6 -25 -27 -4 -14 13 -14 17 -2 24 11 7 8 13 -11 30 -20 18 -22
23 -10 31 13 8 13 10 1 18 -12 8 -11 12 3 27 15 14 19 15 26 3 5 -7 12 -10 16
-6 4 4 -3 15 -14 26 -12 10 -22 24 -22 31 0 7 -7 10 -16 6 -9 -3 -18 -6 -20
-6 -2 0 -4 -4 -4 -10 0 -5 9 -10 20 -10 11 0 20 -3 20 -6 0 -11 -29 -34 -44
-34 -9 0 -16 -8 -16 -20 0 -11 5 -20 10 -20 6 0 10 -4 10 -10 0 -5 -9 -10 -20
-10 -11 0 -20 5 -20 10 0 6 -9 10 -20 10 -17 0 -20 7 -20 40 0 38 14 54 22 28
3 -9 9 -8 21 4 22 22 22 38 -1 38 -33 0 -62 -34 -62 -74 0 -20 -4 -36 -10 -36
-5 0 -10 -9 -10 -20 0 -11 5 -20 10 -20 6 0 10 9 10 20 0 11 5 20 10 20 15 0
12 -57 -2 -64 -10 -5 -10 -7 -1 -12 7 -3 13 -14 13 -25 0 -12 7 -19 20 -19 11
0 20 5 20 10 0 6 -4 10 -10 10 -5 0 -10 14 -10 30 0 23 4 30 20 30 22 0 27
-16 8 -23 -7 -2 -10 -8 -6 -12 5 -5 16 2 27 13 19 23 51 30 51 12 0 -5 -9 -10
-20 -10 -13 0 -20 -7 -20 -20 0 -11 -4 -20 -10 -20 -5 0 -10 -9 -10 -20 0 -11
-4 -20 -10 -20 -5 0 -10 -9 -10 -20 0 -11 5 -20 10 -20 6 0 10 5 10 10 0 6 9
10 20 10 12 0 20 -7 20 -16 0 -14 -10 -15 -77 -9 -43 4 -79 11 -81 16 -6 15
-22 10 -22 -6 0 -8 -4 -15 -10 -15 -5 0 -10 5 -10 10 0 17 47 60 65 60 8 0 15
5 15 10 0 6 -9 10 -20 10 -13 0 -20 7 -20 19 0 11 -6 22 -12 24 -10 4 -9 8 2
16 8 5 11 13 7 18 -5 4 -12 1 -18 -7 -8 -13 -10 -13 -18 -1 -8 12 -12 12 -26
-3 -10 -9 -14 -20 -10 -24 4 -4 10 -1 12 6 7 19 23 14 23 -8 0 -13 -7 -20 -20
-20 -11 0 -20 5 -20 10 0 6 -9 10 -20 10 -26 0 -26 12 0 30 11 8 20 18 20 22
0 4 -9 8 -20 8 -15 0 -20 7 -20 29 0 16 -6 31 -12 33 -9 3 -8 9 4 21 23 23 28
21 28 -9 0 -27 26 -61 38 -50 3 4 0 11 -7 16 -12 7 -11 11 4 27 13 13 20 14
23 5 2 -6 12 -12 23 -12 10 0 19 -4 19 -10 0 -5 -9 -10 -20 -10 -13 0 -20 -7
-20 -20 0 -26 6 -25 37 6 20 21 23 28 12 34 -11 7 -8 13 10 29 l24 21 -34 -1
c-19 0 -28 -3 -21 -6 6 -2 12 -9 12 -14 0 -13 -38 -11 -42 2 -2 7 -32 13 -73
14 -39 2 -64 1 -57 -2 6 -3 12 -13 12 -24 0 -10 5 -19 10 -19 6 0 10 -9 10
-20 0 -22 -16 -27 -23 -7 -2 7 -8 8 -13 3 -5 -5 -4 -11 4 -13 14 -5 17 -43 3
-43 -5 0 -12 6 -14 13 -4 9 -8 8 -16 -3 -10 -13 -12 -13 -22 0 -8 11 -12 12
-16 3 -2 -7 -13 -13 -24 -13 -10 0 -19 -4 -19 -10 0 -5 5 -10 10 -10 6 0 10
-9 10 -20 0 -13 7 -20 20 -20 11 0 20 -4 20 -10 0 -5 7 -10 16 -10 15 0 44
-23 44 -34 0 -3 -21 -6 -46 -6 -35 0 -51 5 -65 22 -11 11 -22 18 -27 13 -4 -4
-1 -10 6 -12 23 -9 12 -23 -18 -23 -23 0 -30 -4 -30 -20 0 -22 16 -27 23 -7 2
7 8 8 13 3 5 -5 4 -11 -3 -13 -7 -3 -13 -13 -13 -24 0 -12 -7 -19 -20 -19 -22
0 -27 15 -7 24 10 5 10 7 -1 12 -7 3 -12 27 -12 63 0 45 4 59 20 71 11 8 20
18 20 22 0 4 -9 8 -20 8 -11 0 -20 5 -20 10 0 6 9 10 20 10 11 0 20 -4 20 -10
0 -5 5 -10 10 -10 6 0 10 12 10 26 0 27 26 61 38 49 4 -4 1 -10 -5 -12 -24 -9
-13 -23 17 -23 28 0 30 2 30 39 0 22 5 42 13 44 6 3 2 6 -10 6 -14 1 -23 -5
-23 -14 0 -8 -9 -15 -19 -15 -11 0 -22 -6 -24 -12 -4 -10 -8 -9 -17 2 -9 11
-13 12 -17 3 -8 -21 -43 -16 -43 6 0 11 6 22 13 24 7 3 5 6 -5 6 -17 1 -18
-31 -18 -539z m310 520 c0 -5 -4 -10 -10 -10 -5 0 -10 5 -10 10 0 6 5 10 10
10 6 0 10 -4 10 -10z m160 0 c0 -5 -4 -10 -10 -10 -5 0 -10 5 -10 10 0 6 5 10
10 10 6 0 10 -4 10 -10z m-400 -36 c0 -3 -6 -12 -14 -20 -17 -16 -46 -19 -46
-4 0 6 9 10 20 10 11 0 20 5 20 10 0 6 5 10 10 10 6 0 10 -3 10 -6z m960 -4
c0 -5 9 -10 20 -10 13 0 20 -7 20 -20 0 -11 -4 -20 -10 -20 -5 0 -10 5 -10 10
0 6 -9 10 -20 10 -13 0 -20 7 -20 20 0 11 5 20 10 20 6 0 10 -4 10 -10z m-856
-102 c5 -10 7 -10 12 0 7 14 44 16 44 2 0 -5 -9 -10 -20 -10 -11 0 -20 -4 -20
-10 0 -5 14 -10 30 -10 17 0 30 -4 30 -10 0 -5 -4 -10 -10 -10 -5 0 -10 -4
-10 -10 0 -5 14 -10 30 -10 17 0 30 5 30 10 0 6 9 10 19 10 11 0 21 6 23 12 3
9 9 8 22 -5 17 -16 17 -18 0 -34 -13 -13 -19 -14 -22 -5 -8 25 -22 11 -22 -23
0 -19 -4 -35 -10 -35 -5 0 -10 11 -10 25 0 14 -4 25 -10 25 -5 0 -10 -11 -10
-25 0 -19 -5 -25 -21 -25 -29 0 -49 -24 -49 -59 0 -21 -5 -31 -15 -31 -8 0
-15 -9 -15 -20 0 -11 6 -20 14 -20 11 0 14 -27 14 -139 1 -169 6 -179 85 -175
28 1 53 7 55 13 2 6 10 11 18 11 17 0 19 -27 1 -33 -6 -2 -9 -8 -5 -12 4 -4
15 0 24 10 14 13 28 16 61 11 30 -4 54 -1 78 11 l35 17 0 131 c0 89 -4 135
-12 143 -8 8 -46 12 -105 12 l-93 0 0 -145 0 -145 -60 0 -60 0 0 200 0 201
203 -4 c203 -5 231 -6 222 -15 -2 -3 4 -17 15 -32 18 -25 20 -45 20 -187 0
-146 2 -160 20 -176 11 -9 31 -17 45 -17 26 0 34 -15 13 -23 -10 -4 -9 -8 2
-16 13 -10 13 -12 0 -21 -13 -9 -13 -11 0 -20 13 -9 13 -11 0 -19 -8 -6 -11
-13 -8 -17 4 -3 15 2 25 12 13 12 14 19 5 22 -19 6 -14 22 8 22 11 0 20 5 20
10 0 6 -9 10 -20 10 -37 0 -19 24 40 53 16 8 26 23 28 40 3 25 32 40 32 17 0
-5 5 -10 10 -10 14 0 12 38 -2 43 -7 2 -9 8 -5 13 4 5 12 2 17 -5 7 -12 11
-12 24 2 18 17 21 47 6 47 -5 0 -10 5 -10 10 0 6 18 10 40 10 33 0 40 -3 40
-20 0 -16 7 -20 30 -20 17 0 30 -4 30 -10 0 -5 -9 -10 -20 -10 -15 0 -20 -7
-20 -28 0 -16 -8 -34 -20 -42 -21 -15 -28 -50 -10 -50 6 0 10 -9 10 -19 0 -11
6 -22 13 -24 9 -4 8 -8 -3 -16 -8 -5 -11 -13 -7 -18 5 -4 12 -1 17 6 7 12 11
12 24 -2 19 -19 21 -43 4 -51 -10 -5 -10 -7 0 -12 14 -7 16 -44 2 -44 -5 0
-10 -9 -10 -20 0 -11 -4 -20 -10 -20 -5 0 -10 5 -10 10 0 6 -4 10 -10 10 -5 0
-10 -7 -10 -15 0 -9 -11 -27 -25 -40 -21 -22 -33 -25 -100 -25 -41 0 -75 3
-75 6 0 11 29 34 44 34 9 0 16 5 16 10 0 6 -9 10 -20 10 -11 0 -20 -4 -20 -10
0 -5 -13 -10 -29 -10 -16 0 -31 -6 -34 -12 -2 -7 -8 -10 -12 -6 -5 5 2 16 13
27 25 21 29 56 8 77 -20 19 -26 18 -26 -6 0 -11 5 -20 10 -20 6 0 10 -9 10
-20 0 -13 -7 -20 -20 -20 -13 0 -20 7 -20 19 0 11 -6 22 -12 24 -10 4 -9 8 2
17 11 9 12 13 3 17 -7 2 -13 13 -13 23 0 10 -6 21 -12 23 -10 4 -9 8 2 16 12
8 11 13 -10 31 -20 17 -22 23 -10 30 8 5 11 13 6 17 -5 4 -11 2 -13 -4 -6 -18
-23 -16 -23 2 0 8 7 15 15 15 8 0 15 5 15 10 0 6 -27 10 -60 10 -65 0 -85 -19
-22 -21 23 -1 28 -3 15 -6 -15 -3 -23 -12 -23 -24 0 -21 15 -26 24 -6 5 10 7
9 12 0 3 -7 12 -13 21 -13 14 0 43 -23 43 -34 0 -3 -9 -6 -20 -6 -27 0 -25 -7
13 -43 20 -19 27 -32 20 -34 -17 -6 -17 -40 0 -46 7 -2 8 -8 3 -13 -5 -5 -11
-4 -13 4 -7 19 -57 14 -73 -8 -8 -11 -18 -20 -22 -20 -13 0 -9 38 5 44 10 5
10 7 0 12 -7 3 -13 14 -13 24 0 10 6 20 13 23 7 2 8 8 3 13 -5 5 -11 4 -13 -3
-5 -15 -43 -17 -43 -3 0 6 -9 10 -20 10 -11 0 -20 4 -20 8 0 4 9 14 20 22 11
8 20 22 20 32 0 10 5 18 10 18 6 0 10 9 10 20 0 11 -3 20 -6 20 -11 0 -34 -29
-34 -42 0 -8 -9 -20 -20 -28 -16 -12 -20 -26 -20 -72 0 -51 -2 -58 -20 -58
-11 0 -20 -4 -20 -10 0 -23 53 -9 81 21 16 18 33 29 37 25 3 -4 0 -12 -8 -17
-11 -8 -12 -12 -2 -16 6 -2 12 -11 12 -20 0 -8 7 -21 15 -30 14 -14 18 -13 34
6 21 25 37 26 57 7 16 -17 19 -46 4 -46 -5 0 -10 5 -10 10 0 15 -57 12 -64 -2
-5 -10 -7 -10 -12 0 -7 14 -44 16 -44 2 0 -5 -9 -10 -20 -10 -11 0 -20 5 -20
10 0 6 -9 10 -19 10 -11 0 -22 6 -25 13 -5 9 -7 9 -12 0 -13 -28 -24 -10 -24
37 0 43 3 50 20 50 11 0 20 5 20 10 0 6 -13 10 -30 10 -16 0 -30 5 -30 10 0 6
9 10 20 10 23 0 27 25 6 46 -19 18 -26 18 -26 -2 0 -20 -24 -44 -44 -44 -22 0
-20 13 4 30 31 23 26 50 -10 50 -16 0 -30 -4 -30 -10 0 -5 5 -10 10 -10 14 0
12 -37 -2 -43 -10 -4 -9 -8 2 -16 13 -10 13 -12 0 -20 -8 -6 -11 -14 -6 -18 5
-4 11 -2 13 5 8 21 43 14 43 -8 0 -11 5 -20 10 -20 6 0 10 -9 10 -20 0 -11 -4
-20 -8 -20 -4 0 -14 9 -22 20 -15 21 -50 28 -50 10 0 -5 7 -10 15 -10 9 0 27
-11 40 -25 25 -24 33 -55 15 -55 -5 0 -10 5 -10 10 0 14 -38 12 -43 -2 -2 -7
-8 -9 -13 -5 -5 4 -2 12 5 17 12 7 12 11 -2 24 -8 9 -23 16 -31 16 -19 0 -21
16 -3 24 10 5 10 7 0 12 -15 7 -17 44 -3 44 6 0 10 9 10 20 0 24 -25 26 -47 4
-14 -13 -14 -17 -2 -24 7 -5 10 -13 5 -17 -5 -4 -11 -2 -13 5 -5 14 -43 16
-43 2 0 -5 -9 -10 -20 -10 -27 0 -25 -7 10 -40 16 -15 30 -35 30 -43 0 -9 6
-17 13 -20 6 -2 8 -8 4 -13 -4 -5 -13 -2 -18 6 -8 11 -12 12 -16 3 -6 -16
-143 -18 -143 -3 0 6 5 10 10 10 6 0 10 5 10 10 0 15 -58 12 -63 -2 -2 -7 -8
-10 -12 -6 -5 5 3 18 16 29 16 15 20 23 12 26 -7 3 -13 17 -13 33 0 16 -6 31
-12 34 -10 5 -10 7 0 12 16 7 16 41 0 47 -10 4 -9 8 2 17 11 9 12 13 3 17 -16
6 -18 143 -3 143 6 0 10 -22 10 -50 0 -27 5 -50 10 -50 6 0 10 12 10 26 0 14
7 33 16 41 13 14 17 14 26 2 7 -11 11 -11 15 -1 7 17 23 15 23 -4 0 -20 24
-44 44 -44 9 0 16 8 16 20 0 13 -7 20 -20 20 -11 0 -20 5 -20 10 0 6 9 10 20
10 16 0 20 7 20 30 0 17 -4 30 -10 30 -5 0 -10 -9 -10 -20 0 -16 -7 -20 -30
-20 -16 0 -30 -4 -30 -10 0 -5 -4 -10 -10 -10 -5 0 -10 9 -10 20 0 22 -16 27
-23 8 -2 -7 -8 -10 -12 -6 -4 4 0 14 8 23 17 17 67 21 67 5 0 -5 5 -10 10 -10
6 0 10 14 10 30 0 23 -5 30 -19 30 -11 0 -22 -6 -24 -12 -4 -10 -8 -9 -16 2
-10 13 -12 13 -21 0 -9 -13 -11 -13 -19 0 -6 8 -13 11 -18 7 -4 -5 -1 -12 6
-17 12 -7 12 -11 -2 -24 -23 -24 -27 -20 -27 24 0 33 3 40 20 40 22 0 27 16 8
23 -8 2 -9 8 -4 13 5 5 11 4 13 -3 3 -7 13 -13 24 -13 12 0 19 -7 19 -20 0
-11 5 -20 10 -20 18 0 11 35 -10 50 -22 16 -27 66 -7 73 6 2 9 8 5 12 -5 5
-16 -2 -27 -13 -10 -12 -26 -22 -35 -22 -19 0 -22 16 -3 23 9 4 9 8 -2 15 -11
8 -9 15 13 37 l26 26 39 -40 c22 -23 42 -41 45 -41 12 0 6 38 -6 43 -9 3 -5
12 12 27 17 15 21 24 13 27 -19 7 -16 43 3 43 20 0 44 24 44 44 0 19 16 21 23
4 2 -7 8 -10 12 -6 8 8 -59 78 -75 78 -12 0 -40 24 -40 34 0 12 38 6 44 -6z
m382 -42 c8 -8 14 -22 14 -30 0 -22 9 -20 31 6 11 11 22 18 27 13 4 -4 1 -10
-5 -12 -15 -5 -17 -43 -3 -43 15 0 12 -17 -3 -23 -23 -9 -67 5 -67 20 0 9 -9
24 -21 34 -18 15 -19 20 -7 33 16 19 16 19 34 2z m234 -6 c0 -13 -7 -20 -20
-20 -13 0 -20 7 -20 20 0 13 7 20 20 20 13 0 20 -7 20 -20z m-640 -80 c0 -11
-4 -20 -10 -20 -14 0 -12 -38 2 -42 17 -6 -14 -38 -36 -38 -19 0 -22 36 -3 44
10 5 10 7 0 12 -28 13 -4 63 30 64 10 0 17 -7 17 -20z m631 -30 l59 0 0 -200
0 -200 -60 0 -60 0 0 194 c0 107 -2 200 -3 208 -2 7 -2 10 0 6 3 -5 31 -8 64
-8z m-751 -50 c0 -11 -4 -20 -10 -20 -5 0 -10 9 -10 20 0 11 5 20 10 20 6 0
10 -9 10 -20z m670 -1 c0 -5 -4 -9 -10 -9 -5 0 -10 7 -10 16 0 8 5 12 10 9 6
-3 10 -10 10 -16z m-192 -226 l3 -123 -66 0 -65 0 0 125 0 126 63 -3 62 -3 3
-122z m402 -3 c0 -5 -9 -10 -19 -10 -12 0 -21 -8 -24 -22 -3 -17 -5 -14 -6 10
-1 28 2 32 24 32 14 0 25 -4 25 -10z m160 -80 c0 -23 -5 -30 -19 -30 -11 0
-21 -6 -24 -12 -2 -7 -8 -10 -12 -6 -5 5 2 16 13 27 12 10 22 26 22 35 0 9 5
16 10 16 6 0 10 -13 10 -30z m0 -59 c0 -5 -6 -12 -12 -15 -10 -5 -10 -7 0 -12
12 -6 18 -44 6 -44 -10 0 -34 28 -34 40 0 13 22 39 33 40 4 0 7 -4 7 -9z
m-780 -201 c0 -5 -4 -10 -10 -10 -5 0 -10 -9 -10 -20 0 -24 -6 -25 -26 -6 -24
25 -17 46 16 46 17 0 30 -4 30 -10z m20 -70 c0 -13 -7 -20 -20 -20 -23 0 -25
5 -7 25 17 20 27 18 27 -5z m420 -10 c0 -5 -4 -10 -10 -10 -5 0 -10 5 -10 10
0 6 5 10 10 10 6 0 10 -4 10 -10z m320 0 c0 -5 -4 -10 -10 -10 -5 0 -10 5 -10
10 0 6 5 10 10 10 6 0 10 -4 10 -10z"/>
<path d="M170 620 c-8 -11 -22 -20 -32 -20 -10 0 -18 -4 -18 -10 0 -5 9 -10
20 -10 13 0 20 -7 20 -20 0 -11 5 -20 10 -20 14 0 12 38 -2 43 -9 3 -6 11 10
24 23 21 28 33 14 33 -4 0 -14 -9 -22 -20z"/>
<path d="M980 490 c0 -5 5 -10 10 -10 6 0 10 -4 10 -10 0 -5 -9 -10 -20 -10
-13 0 -20 -7 -20 -20 0 -11 -4 -20 -10 -20 -5 0 -10 -4 -10 -10 0 -5 9 -10 20
-10 13 0 20 7 20 20 0 11 5 20 10 20 6 0 10 -4 10 -10 0 -5 5 -10 10 -10 15 0
12 49 -4 66 -17 16 -26 18 -26 4z"/>
<path d="M880 381 c0 -11 6 -21 12 -23 17 -6 -14 -38 -36 -38 -9 0 -16 -8 -16
-20 0 -11 -4 -20 -10 -20 -16 0 -12 -50 5 -67 9 -8 19 -12 23 -9 3 4 0 11 -7
16 -12 7 -12 11 2 24 8 9 22 16 30 16 9 0 18 6 20 13 4 9 8 8 16 -3 10 -13 12
-13 22 0 8 11 12 12 16 3 6 -15 43 -17 43 -3 0 6 -9 10 -20 10 -11 0 -20 5
-20 10 0 6 9 10 20 10 11 0 20 5 20 10 0 18 -32 10 -53 -12 -13 -16 -21 -19
-24 -10 -3 6 -13 12 -24 12 -23 0 -24 6 -3 27 13 13 17 14 24 3 7 -11 11 -10
25 3 15 15 15 19 1 32 -8 8 -22 15 -30 15 -9 0 -16 5 -16 10 0 6 -4 10 -10 10
-5 0 -10 -9 -10 -19z m60 -31 c0 -5 -4 -10 -10 -10 -5 0 -10 5 -10 10 0 6 5
10 10 10 6 0 10 -4 10 -10z"/>
<path d="M80 370 c0 -5 5 -10 10 -10 6 0 10 5 10 10 0 6 -4 10 -10 10 -5 0
-10 -4 -10 -10z"/>
<path d="M120 340 c0 -11 5 -20 10 -20 14 0 12 -37 -2 -44 -10 -5 -10 -7 0
-12 17 -8 15 -72 -2 -90 -8 -8 -22 -14 -30 -14 -23 0 -20 33 4 50 21 15 28 50
10 50 -5 0 -10 14 -10 30 0 23 -4 30 -20 30 -13 0 -20 -7 -20 -19 0 -11 -6
-21 -12 -24 -8 -2 -9 -8 -4 -13 5 -5 11 -4 13 4 7 18 23 15 23 -4 0 -9 -10
-26 -22 -37 -16 -13 -19 -21 -10 -24 6 -3 12 -11 12 -19 0 -24 47 -64 75 -64
14 0 25 5 25 10 0 6 -4 10 -10 10 -5 0 -10 9 -10 20 0 11 5 20 10 20 6 0 10 9
10 20 0 22 16 27 23 8 2 -7 8 -10 12 -6 5 5 -2 16 -13 27 -27 23 -28 31 -2 31
13 0 20 7 20 20 0 11 5 20 10 20 6 0 10 -4 10 -10 0 -5 5 -10 10 -10 6 0 10
14 10 30 0 17 -4 30 -10 30 -5 0 -10 -4 -10 -10 0 -5 -18 -10 -40 -10 -33 0
-40 3 -40 20 0 11 -4 20 -10 20 -5 0 -10 -9 -10 -20z"/>
<path d="M420 320 c0 -16 7 -20 30 -20 17 0 30 -4 30 -10 0 -5 -4 -10 -10 -10
-5 0 -10 -4 -10 -10 0 -15 29 -12 46 4 16 17 19 66 4 66 -5 0 -10 -4 -10 -10
0 -5 -9 -10 -20 -10 -11 0 -20 5 -20 10 0 6 -9 10 -20 10 -13 0 -20 -7 -20
-20z"/>
<path d="M260 290 c0 -30 14 -41 23 -17 3 8 11 5 24 -10 24 -27 33 -29 33 -7
0 20 -24 44 -44 44 -9 0 -16 5 -16 10 0 6 -4 10 -10 10 -5 0 -10 -13 -10 -30z"/>
<path d="M720 310 c0 -5 5 -10 10 -10 6 0 10 5 10 10 0 6 -4 10 -10 10 -5 0
-10 -4 -10 -10z"/>
<path d="M620 270 c0 -5 -9 -10 -20 -10 -13 0 -20 -7 -20 -20 0 -22 16 -27 22
-8 6 17 38 -14 38 -36 0 -9 5 -16 10 -16 6 0 10 9 10 20 0 11 -4 20 -10 20 -5
0 -10 14 -10 30 0 17 -4 30 -10 30 -5 0 -10 -4 -10 -10z"/>
<path d="M220 240 c0 -11 5 -20 10 -20 6 0 10 9 10 20 0 11 -4 20 -10 20 -5 0
-10 -9 -10 -20z"/>
<path d="M920 230 c0 -5 -9 -10 -20 -10 -11 0 -20 -4 -20 -10 0 -5 9 -10 20
-10 13 0 20 -7 20 -20 0 -11 5 -20 10 -20 14 0 12 38 -2 43 -7 2 -10 8 -6 12
5 5 16 -2 27 -13 10 -12 21 -22 25 -22 12 0 6 31 -8 46 -17 16 -46 19 -46 4z"/>
<path d="M1000 220 c0 -13 7 -20 20 -20 13 0 20 7 20 20 0 13 -7 20 -20 20
-13 0 -20 -7 -20 -20z"/>
<path d="M860 170 c0 -5 5 -10 10 -10 6 0 10 5 10 10 0 6 -4 10 -10 10 -5 0
-10 -4 -10 -10z"/>
<path d="M991 164 c-7 -8 -10 -18 -6 -22 4 -4 10 -1 12 6 3 6 13 12 24 12 10
0 19 5 19 10 0 15 -33 11 -49 -6z"/>
<path d="M820 150 c0 -5 5 -10 10 -10 6 0 10 5 10 10 0 6 -4 10 -10 10 -5 0
-10 -4 -10 -10z"/>
<path d="M540 130 c0 -5 5 -10 10 -10 6 0 10 5 10 10 0 6 -4 10 -10 10 -5 0
-10 -4 -10 -10z"/>
<path d="M920 121 c0 -11 -6 -21 -12 -24 -7 -2 -9 -8 -5 -13 4 -5 12 -2 18 6
8 13 10 13 18 1 8 -12 12 -12 26 2 15 15 15 19 1 32 -21 21 -46 19 -46 -4z"/>
<path d="M180 100 c0 -13 7 -20 20 -20 13 0 20 7 20 20 0 13 -7 20 -20 20 -13
0 -20 -7 -20 -20z"/>
<path d="M520 90 c0 -5 9 -10 20 -10 11 0 20 5 20 10 0 6 -9 10 -20 10 -11 0
-20 -4 -20 -10z"/>
<path d="M120 790 c0 -5 5 -10 10 -10 6 0 10 5 10 10 0 6 -4 10 -10 10 -5 0
-10 -4 -10 -10z"/>
<path d="M120 730 c0 -5 5 -10 10 -10 6 0 10 5 10 10 0 6 -4 10 -10 10 -5 0
-10 -4 -10 -10z"/>
<path d="M678 1082 c24 -4 30 -18 10 -25 -7 -2 -9 -8 -5 -13 4 -5 12 -2 17 5
7 12 11 12 24 -2 23 -22 20 -27 -14 -27 -23 0 -30 -4 -30 -20 0 -13 -7 -20
-20 -20 -11 0 -20 -4 -20 -10 0 -5 8 -10 18 -10 10 0 24 -9 32 -20 18 -25 30
-26 30 -1 0 11 6 22 13 24 9 4 8 8 -3 16 -8 5 -11 14 -6 18 5 4 11 2 13 -4 3
-7 12 -13 20 -13 9 0 24 -10 34 -21 l18 -21 40 41 c22 22 47 41 55 41 9 0 16
7 16 16 0 19 -28 49 -38 40 -3 -4 0 -11 7 -16 12 -7 12 -11 -2 -24 -21 -21
-27 -20 -27 4 0 11 -4 20 -10 20 -5 0 -10 -16 -10 -36 0 -19 -7 -42 -15 -50
-13 -14 -17 -14 -30 0 -17 16 -20 46 -6 46 5 0 11 -6 14 -12 2 -7 8 -10 12 -6
4 4 -1 15 -11 25 -12 13 -19 14 -22 5 -6 -19 -22 -14 -22 8 0 13 -7 20 -20 20
-11 0 -20 5 -20 10 0 6 9 10 20 10 11 0 20 -4 20 -10 0 -5 14 -10 30 -10 33 0
41 15 13 24 -10 3 -47 5 -83 4 -36 -1 -55 -4 -42 -6z"/>
<path d="M620 1061 c0 -11 6 -21 13 -24 8 -3 5 -11 -10 -24 -23 -21 -31 -53
-13 -53 6 0 10 9 10 20 0 13 7 20 20 20 13 0 20 7 20 20 0 11 -4 20 -10 20 -5
0 -10 9 -10 20 0 11 -4 20 -10 20 -5 0 -10 -9 -10 -19z"/>
<path d="M180 1050 c0 -5 5 -10 10 -10 6 0 10 5 10 10 0 6 -4 10 -10 10 -5 0
-10 -4 -10 -10z"/>
<path d="M940 1010 c0 -27 5 -50 10 -50 6 0 10 -9 10 -20 0 -13 -7 -20 -20
-20 -22 0 -27 16 -8 22 9 3 8 10 -5 22 -10 10 -21 15 -25 12 -3 -4 0 -12 8
-17 11 -8 12 -12 3 -16 -7 -2 -13 -13 -13 -23 0 -10 -6 -20 -12 -23 -7 -2 -9
-8 -5 -13 4 -5 13 -2 18 6 8 11 12 12 16 3 6 -17 40 -17 45 -1 6 17 38 -14 38
-36 0 -9 5 -16 10 -16 6 0 10 -4 10 -10 0 -5 -13 -10 -30 -10 -30 0 -41 -14
-17 -23 8 -3 5 -11 -10 -24 -23 -21 -31 -53 -13 -53 6 0 10 -4 10 -10 0 -5
-12 -10 -26 -10 -27 0 -61 -26 -49 -38 4 -4 10 -1 12 6 3 6 18 12 34 12 16 0
29 5 29 10 0 6 9 10 20 10 11 0 20 5 20 10 0 6 9 10 20 10 22 0 27 -16 8 -23
-7 -2 -10 -8 -6 -12 4 -4 15 0 24 10 15 14 15 18 3 27 -11 7 -11 11 -1 15 20
8 14 43 -8 43 -13 0 -20 7 -20 20 0 11 5 20 10 20 6 0 10 13 10 29 0 16 6 31
13 34 6 2 8 8 4 13 -4 5 -13 2 -18 -6 -8 -11 -12 -12 -16 -2 -2 6 -13 12 -24
12 -22 0 -27 35 -6 44 10 5 10 7 0 12 -7 3 -13 19 -13 35 0 16 -4 29 -10 29
-5 0 -10 9 -10 20 0 11 -4 20 -10 20 -5 0 -10 -22 -10 -50z m80 -250 c0 -16
-7 -20 -30 -20 -33 0 -36 4 -17 25 18 21 47 18 47 -5z"/>
<path d="M60 921 c0 -11 -6 -21 -12 -24 -8 -2 -9 -8 -4 -13 5 -5 11 -4 13 4 3
6 13 12 24 12 12 0 19 7 19 20 0 13 -7 20 -20 20 -13 0 -20 -7 -20 -19z"/>
<path d="M880 850 c0 -5 5 -10 10 -10 6 0 10 5 10 10 0 6 -4 10 -10 10 -5 0
-10 -4 -10 -10z"/>
<path d="M940 850 c0 -5 5 -10 10 -10 6 0 10 5 10 10 0 6 -4 10 -10 10 -5 0
-10 -4 -10 -10z"/>
<path d="M420 830 c0 -5 9 -10 20 -10 11 0 20 5 20 10 0 6 -9 10 -20 10 -11 0
-20 -4 -20 -10z"/>
<path d="M780 810 c0 -5 9 -10 20 -10 11 0 20 5 20 10 0 6 -9 10 -20 10 -11 0
-20 -4 -20 -10z"/>
<path d="M873 805 c-7 -8 -9 -16 -4 -20 5 -3 12 1 14 7 4 10 8 9 16 -2 5 -8
13 -11 17 -8 3 4 -1 14 -9 23 -19 18 -19 18 -34 0z"/>
<path d="M971 664 c-18 -21 -6 -30 14 -11 8 9 15 18 15 21 0 11 -15 5 -29 -10z"/>
<path d="M913 645 c-18 -20 -16 -25 7 -25 13 0 20 7 20 20 0 23 -10 25 -27 5z"/>
<path d="M1020 641 c0 -11 -6 -22 -12 -25 -10 -5 -10 -7 0 -12 6 -3 12 -14 12
-25 0 -10 5 -19 10 -19 6 0 10 14 10 30 0 17 5 30 10 30 6 0 10 9 10 20 0 13
-7 20 -20 20 -13 0 -20 -7 -20 -19z"/>
</g>
</svg>
